<svg width="35" height="38" viewBox="0 0 35 38" fill="none" xmlns="http://www.w3.org/2000/svg">
<path d="M17.8399 9.03995L19.0199 11.8C19.0999 12.04 19.3199 12.18 19.5399 12.2L22.5399 12.48C23.1799 12.54 23.4199 13.32 22.9599 13.74L20.6999 15.72C20.5199 15.88 20.4399 16.12 20.4999 16.34L21.1599 19.28C21.2999 19.9 20.6399 20.38 20.0799 20.06L17.4999 18.52C17.2999 18.4 17.0399 18.4 16.8399 18.52L14.2599 20.06C13.7199 20.38 13.0399 19.9 13.1799 19.28L13.8399 16.34C13.8999 16.12 13.8199 15.88 13.6399 15.72L11.3799 13.74C10.8999 13.32 11.1599 12.54 11.7999 12.48L14.7999 12.2C15.0399 12.18 15.2399 12.04 15.3399 11.82L16.5199 9.05995C16.7599 8.45995 17.5799 8.45995 17.8399 9.03995Z" stroke="white" stroke-width="2" stroke-miterlimit="10" stroke-linecap="round" stroke-linejoin="round"/>
<path d="M30.7741 14.8892C30.8258 7.37812 24.7787 1.24729 17.2677 1.1956C9.75659 1.14391 3.62576 7.19093 3.57406 14.702C3.52237 22.2131 9.5694 28.3439 17.0805 28.3956C24.5915 28.4473 30.7224 22.4003 30.7741 14.8892Z" stroke="white" stroke-width="2" stroke-miterlimit="10" stroke-linecap="round" stroke-linejoin="round"/>
<path d="M15.3196 28.26L11.9396 36.76L7.65965 31.86L1.19965 32.46L5.47965 21.74" stroke="white" stroke-width="2" stroke-miterlimit="10" stroke-linecap="round" stroke-linejoin="round"/>
<path d="M18.9999 28.26L22.3999 36.76L26.6599 31.86L33.1399 32.46L28.8399 21.74" stroke="white" stroke-width="2" stroke-miterlimit="10" stroke-linecap="round" stroke-linejoin="round"/>
</svg>
