<svg width="40" height="40" viewBox="0 0 40 40" fill="none" xmlns="http://www.w3.org/2000/svg">
<g clip-path="url(#clip0_1_158)">
<path d="M17.594 15.3871C17.7166 14.9211 18.0204 14.5233 18.4382 14.2827L24.1729 10.9698C24.5901 10.7297 25.086 10.6654 25.5509 10.7914C26.0169 10.9155 26.4128 11.2223 26.6498 11.6423L28.4283 14.7298C29.791 14.5291 31.176 14.5291 32.5388 14.7298L34.32 11.6383C34.5566 11.2202 34.9516 10.9149 35.4158 10.7914C35.8791 10.6657 36.3732 10.7288 36.7899 10.967L36.8445 10.9984C36.3873 9.09494 35.4131 7.35521 34.0299 5.9702C33.8744 5.81465 33.7081 5.67648 33.5459 5.53252L29.1212 10.0185C28.4127 10.7264 27.2665 10.7313 26.5522 10.0295L24.0152 7.52357C23.3869 7.7996 22.7397 8.03018 22.0787 8.21348C21.4151 8.39679 20.7392 8.5319 20.0563 8.61792L19.1596 12.0669C18.9555 12.8666 18.236 13.4269 17.4107 13.4287C17.2576 13.4287 17.1051 13.4092 16.9568 13.3714L15.7795 13.0307C15.6319 15.9785 16.7122 18.8556 18.7634 20.9781C19.0092 20.5895 19.2749 20.2138 19.5588 19.8523L17.7791 16.7627C17.536 16.3473 17.4696 15.8519 17.594 15.3871Z" fill="white"/>
<path d="M26.4355 0.0229555C19.3753 0.0186854 13.4943 5.43429 12.9175 12.4707C12.3405 19.5074 17.261 25.8084 24.2279 26.954C24.2364 26.9527 24.2434 26.9476 24.252 26.9466C24.37 26.9387 24.4884 26.9607 24.5957 27.0104C27.7259 27.4703 30.9172 26.7887 33.5865 25.0901C33.6012 25.0773 33.6213 25.0709 33.6372 25.0593C38.7618 21.8519 41.142 15.6375 39.4706 9.82722C37.7995 4.01725 32.4812 0.0171604 26.4355 0.0229555ZM35.039 22.1234C30.4819 26.6785 23.1576 26.8728 18.3658 22.565C18.3612 22.5598 18.3542 22.5565 18.3499 22.551C18.1919 22.4085 18.0284 22.2752 17.8765 22.1234C15.2108 19.4528 13.9417 15.6924 14.4447 11.9528C14.4483 11.936 14.4441 11.9198 14.4489 11.9034L14.4529 11.8951C15.029 7.60254 17.8549 3.94527 21.8632 2.30467C25.8715 0.664068 30.4508 1.29054 33.8711 3.94741C33.9074 3.96906 33.9416 3.99438 33.9733 4.02244C36.7082 6.15836 38.3925 9.36759 38.5965 12.8321C38.8005 16.2963 37.5046 19.6812 35.039 22.1234Z" fill="white"/>
<path d="M25.293 24.1767C28.0328 24.4768 30.7824 23.7082 32.9689 22.0307C30.234 20.7241 26.954 21.6412 25.293 24.1767Z" fill="white"/>
<path d="M17.6026 11.9468C17.6895 11.8952 17.7521 11.8108 17.7762 11.7125L18.7982 7.78169C18.8742 7.49011 19.1249 7.27722 19.425 7.25007C20.1933 7.18114 20.954 7.04298 21.6979 6.83741C22.4399 6.63123 23.1625 6.35977 23.8567 6.0258C24.1287 5.89556 24.453 5.94985 24.6677 6.16122L27.5588 9.01695C27.6326 9.09015 27.7329 9.13071 27.8369 9.12919C27.9409 9.12766 28.0401 9.08435 28.1117 9.00871L32.4147 4.64719C29.4233 2.63876 25.6217 2.27215 22.3015 3.67119C18.9812 5.07023 16.5888 8.04704 15.937 11.5905L17.3321 11.9944C17.4251 12.0133 17.5218 11.9965 17.6026 11.9468Z" fill="white"/>
<path d="M29.2911 31.4335C31.6558 31.4307 33.5718 29.5147 33.5745 27.1501C33.5745 27.0268 33.5565 26.9036 33.5459 26.7804C31.3627 27.9626 28.9187 28.5805 26.4357 28.5778C26.0328 28.5778 25.6369 28.5488 25.2422 28.5174C25.8199 30.2623 27.4531 31.4384 29.2911 31.4335Z" fill="white"/>
<path d="M37.1263 12.8075L36.0813 12.207C35.9923 12.1561 35.8867 12.1426 35.7879 12.1698C35.6909 12.1954 35.6086 12.2595 35.5595 12.347L33.5294 15.8704C33.3784 16.1314 33.0801 16.2699 32.7833 16.2165C31.2629 15.9384 29.7044 15.9384 28.1836 16.2165C27.8872 16.2687 27.5895 16.1305 27.4376 15.8704L25.4102 12.351C25.3608 12.2619 25.2773 12.1963 25.1787 12.1698C25.0787 12.1426 24.972 12.1567 24.8826 12.2088L19.1541 15.5181C19.065 15.5696 19.0003 15.6544 18.9741 15.7539C18.9479 15.8533 18.9625 15.9591 19.0147 16.0476L21.0435 19.5694C21.1954 19.8323 21.164 20.1623 20.9655 20.3917C20.551 20.8825 20.1764 21.4055 19.8455 21.9558C21.0106 22.8717 22.3547 23.5335 23.7913 23.8986C24.7618 22.1305 26.4045 20.8285 28.3471 20.2868C30.29 19.7451 32.3692 20.0095 34.1147 21.02C36.2454 18.8383 37.3416 15.8496 37.1263 12.8075Z" fill="white"/>
<path d="M7.78088 28.181L2.22803 33.7335L6.26655 37.7718L11.8194 32.2192C12.0976 31.9398 12.0976 31.4884 11.8194 31.2094L8.79013 28.1807C8.5077 27.9114 8.06331 27.9114 7.78088 28.181Z" fill="white"/>
<path d="M15.8633 27.1807C16.1424 27.454 16.5895 27.451 16.8646 27.1737L18.0368 25.997C16.4486 24.9188 15.0804 23.5482 14.0053 21.9579L12.8273 23.1358C12.5504 23.4134 12.5504 23.8623 12.8273 24.1399L13.3776 24.6916L15.8572 27.171L15.8633 27.1807Z" fill="white"/>
<path d="M36.6906 29.7719C36.7904 29.4846 37.0609 29.2919 37.365 29.2919H39.9993V25.0087H37.365C37.0655 25.009 36.7977 24.8218 36.6952 24.5406C36.6906 24.5281 36.6845 24.514 36.6803 24.5015C36.1139 25.0389 35.5069 25.5315 34.8643 25.975C35.2873 27.9706 34.612 30.04 33.0934 31.4019C31.5748 32.764 29.4444 33.2108 27.5064 32.5743C25.5685 31.9375 24.1185 30.3136 23.7037 28.3165C22.1595 28.0344 20.6698 27.5098 19.2897 26.7622L18.583 27.4713V29.2919H21.2173C21.5211 29.2919 21.7919 29.4846 21.8914 29.7719C22.2083 30.6818 22.6938 31.5239 23.3224 32.254C23.5195 32.484 23.5496 32.8128 23.3987 33.0751L22.085 35.3523L25.7932 37.497L27.102 35.2171C27.2524 34.9545 27.5522 34.8161 27.8496 34.8716C28.8027 35.0451 29.7796 35.0451 30.7327 34.8716C31.0301 34.8167 31.3293 34.9551 31.4803 35.2171L32.7936 37.4943L36.5012 35.3553L35.1836 33.0748C35.0323 32.8128 35.0628 32.4837 35.2599 32.254C35.8882 31.5239 36.3737 30.6818 36.6906 29.7719Z" fill="white"/>
<path d="M14.3405 27.6785L12.3681 25.7012L12.3239 25.6569L10.3041 27.6757L11.3143 28.6859L12.3239 29.6952L14.3405 27.6785Z" fill="white"/>
<path d="M3.33112 13.3529C3.64832 14.2627 4.13388 15.1048 4.76249 15.835C4.95952 16.0646 4.99002 16.3937 4.83874 16.6557L3.5251 18.9332L7.23269 21.0779L8.54176 18.7981C8.69182 18.5355 8.99164 18.3967 9.28901 18.4525C10.2421 18.626 11.2191 18.626 12.1722 18.4525C12.2048 18.4491 12.2375 18.4479 12.2698 18.4494C12.0328 17.765 11.8461 17.0644 11.7113 16.3532C9.58547 16.725 7.43125 15.8661 6.14445 14.1337C4.85765 12.401 4.65757 10.0909 5.62778 8.16297C6.59798 6.23506 8.57226 5.01902 10.7308 5.02024C11.754 5.0178 12.7587 5.29535 13.6362 5.82239C14.5231 4.35777 15.6529 3.05481 16.9772 1.96931L14.2285 0.384521L12.9197 2.66441C12.7691 2.9264 12.4696 3.06487 12.1722 3.00967C11.2191 2.83612 10.2421 2.83612 9.28901 3.00967C8.99164 3.06609 8.69151 2.92732 8.54176 2.66441L7.22812 0.386961L3.52052 2.52594L4.83843 4.80643C4.98971 5.06843 4.95921 5.39752 4.76249 5.62749C4.13357 6.35767 3.64832 7.19978 3.33112 8.1096C3.23138 8.39691 2.96084 8.58936 2.65676 8.58936H0.0224609V12.8728H2.65676C2.96084 12.8728 3.23138 13.0656 3.33112 13.3529Z" fill="white"/>
<path d="M3.23759 39.7909C3.51667 40.0694 3.96868 40.0694 4.24775 39.7909L5.257 38.7813L1.21879 34.7431L0.209231 35.7524C0.0753354 35.8863 0 36.0677 0 36.2568C0 36.4463 0.0753354 36.6277 0.209231 36.7616L3.23759 39.7909Z" fill="white"/>
<path d="M10.7307 6.44787C9.09868 6.43567 7.60174 7.3522 6.87035 8.81102C6.13895 10.2698 6.29999 12.0175 7.28576 13.3183C8.27152 14.6189 9.9106 15.2462 11.5128 14.9361C11.4731 14.4908 11.4444 14.0421 11.4444 13.5864C11.4469 11.3331 11.9614 9.10932 12.949 7.0838C12.2835 6.6687 11.5149 6.44848 10.7307 6.44787Z" fill="white"/>
</g>
<defs>
<clipPath id="clip0_1_158">
<rect width="40" height="40" fill="white"/>
</clipPath>
</defs>
</svg>
