<svg width="32" height="32" viewBox="0 0 32 32" fill="none" xmlns="http://www.w3.org/2000/svg">
<path fill-rule="evenodd" clip-rule="evenodd" d="M0 16C0 7.16344 7.16344 0 16 0C24.8366 0 32 7.16344 32 16C32 24.8366 24.8366 32 16 32C7.16344 32 0 24.8366 0 16Z" fill="#C4C4C4"/>
<path fill-rule="evenodd" clip-rule="evenodd" d="M16 0C7.16344 0 0 7.16344 0 16C0 24.8366 7.16344 32 16 32C24.8366 32 32 24.8366 32 16C32 7.16344 24.8366 0 16 0ZM12.8156 7.51835C13.7258 7.47693 14.0167 7.4668 16.3342 7.4668H16.3315C18.6498 7.4668 18.9396 7.47693 19.8498 7.51835C20.7582 7.55995 21.3787 7.70378 21.9227 7.9148C22.4845 8.13258 22.9592 8.42414 23.4338 8.89881C23.9085 9.37313 24.2001 9.84922 24.4187 10.4105C24.6285 10.9531 24.7725 11.5732 24.8152 12.4816C24.8561 13.3918 24.8667 13.6827 24.8667 16.0002C24.8667 18.3178 24.8561 18.6079 24.8152 19.5181C24.7725 20.4262 24.6285 21.0465 24.4187 21.5893C24.2001 22.1503 23.9085 22.6264 23.4338 23.1007C22.9597 23.5754 22.4843 23.8677 21.9232 24.0856C21.3803 24.2967 20.7595 24.4405 19.851 24.4821C18.9408 24.5235 18.6509 24.5336 16.3331 24.5336C14.0158 24.5336 13.7251 24.5235 12.8149 24.4821C11.9066 24.4405 11.2863 24.2967 10.7434 24.0856C10.1825 23.8677 9.7064 23.5754 9.23226 23.1007C8.75777 22.6264 8.46621 22.1503 8.24807 21.5891C8.03723 21.0465 7.8934 20.4264 7.85163 19.5179C7.81038 18.6077 7.80007 18.3178 7.80007 16.0002C7.80007 13.6827 7.81074 13.3917 7.85145 12.4814C7.89234 11.5733 8.03634 10.9531 8.2479 10.4103C8.46657 9.84922 8.75812 9.37313 9.2328 8.89881C9.70711 8.42432 10.1832 8.13276 10.7445 7.9148C11.287 7.70378 11.9071 7.55995 12.8156 7.51835Z" fill="white"/>
<path fill-rule="evenodd" clip-rule="evenodd" d="M15.5687 9.00409C15.7174 9.00385 15.8773 9.00393 16.0498 9.004L16.3343 9.00409C18.6127 9.00409 18.8827 9.01226 19.7825 9.05315C20.6145 9.0912 21.066 9.23022 21.3668 9.34702C21.7651 9.50169 22.049 9.68658 22.3475 9.98525C22.6461 10.2839 22.831 10.5684 22.9861 10.9666C23.1029 11.267 23.2421 11.7186 23.2799 12.5506C23.3208 13.4502 23.3297 13.7204 23.3297 15.9978C23.3297 18.2751 23.3208 18.5453 23.2799 19.4449C23.2419 20.2769 23.1029 20.7285 22.9861 21.0289C22.8314 21.4271 22.6461 21.7107 22.3475 22.0092C22.0488 22.3079 21.7652 22.4928 21.3668 22.6474C21.0664 22.7648 20.6145 22.9034 19.7825 22.9415C18.8829 22.9824 18.6127 22.9913 16.3343 22.9913C14.0556 22.9913 13.7856 22.9824 12.886 22.9415C12.054 22.9031 11.6025 22.7641 11.3015 22.6472C10.9033 22.4926 10.6188 22.3077 10.3201 22.009C10.0215 21.7104 9.83658 21.4266 9.68156 21.0282C9.56476 20.7278 9.42556 20.2762 9.38769 19.4442C9.3468 18.5446 9.33862 18.2744 9.33862 15.9956C9.33862 13.7168 9.3468 13.448 9.38769 12.5485C9.42574 11.7165 9.56476 11.2649 9.68156 10.9641C9.83623 10.5659 10.0215 10.2814 10.3201 9.98276C10.6188 9.68409 10.9033 9.4992 11.3015 9.34418C11.6023 9.22684 12.054 9.08818 12.886 9.04995C13.6732 9.0144 13.9783 9.00373 15.5687 9.00195V9.00409ZM20.8892 10.4206C20.3238 10.4206 19.8651 10.8787 19.8651 11.4443C19.8651 12.0096 20.3238 12.4683 20.8892 12.4683C21.4545 12.4683 21.9132 12.0096 21.9132 11.4443C21.9132 10.8789 21.4545 10.4202 20.8892 10.4202V10.4206ZM11.9521 15.9988C11.9521 13.5787 13.9141 11.6166 16.3341 11.6165C18.7543 11.6165 20.7159 13.5787 20.7159 15.9988C20.7159 18.4189 18.7544 20.3802 16.3343 20.3802C13.9142 20.3802 11.9521 18.4189 11.9521 15.9988Z" fill="white"/>
<path fill-rule="evenodd" clip-rule="evenodd" d="M16.334 13.1553C17.9048 13.1553 19.1785 14.4287 19.1785 15.9997C19.1785 17.5706 17.9048 18.8442 16.334 18.8442C14.7629 18.8442 13.4895 17.5706 13.4895 15.9997C13.4895 14.4287 14.7629 13.1553 16.334 13.1553V13.1553Z" fill="white"/>
</svg>
