<svg width="40" height="40" viewBox="0 0 40 40" fill="none" xmlns="http://www.w3.org/2000/svg">
<g clip-path="url(#clip0_1_146)">
<path d="M25.2743 15.4746C24.4934 15.0228 23.5156 15.5885 23.5156 16.489V21.6796L20 24.3163L16.4844 21.6796V16.489C16.4844 15.5869 15.5052 15.0235 14.7257 15.4746C11.4734 17.3559 9.45312 20.8561 9.45312 24.6093C9.45312 28.132 11.2328 31.4318 14.1406 33.3793V38.828C14.1406 39.4752 14.6653 39.9999 15.3125 39.9999H24.6875C25.3347 39.9999 25.8594 39.4752 25.8594 38.828V33.3793C28.7672 31.4318 30.5469 28.132 30.5469 24.6093C30.5469 20.8561 28.5266 17.3559 25.2743 15.4746Z" fill="white"/>
<path d="M36.4844 0H3.51562C1.57711 0 0 1.57711 0 3.51562V9.375H40V3.51562C40 1.57711 38.4229 0 36.4844 0ZM5.9375 7.03125C5.29031 7.03125 4.76562 6.50656 4.76562 5.85938C4.76562 5.21219 5.29031 4.6875 5.9375 4.6875C6.58469 4.6875 7.10938 5.21219 7.10938 5.85938C7.10938 6.50656 6.58469 7.03125 5.9375 7.03125ZM10.625 7.03125C9.97781 7.03125 9.45312 6.50656 9.45312 5.85938C9.45312 5.21219 9.97781 4.6875 10.625 4.6875C11.2722 4.6875 11.7969 5.21219 11.7969 5.85938C11.7969 6.50656 11.2722 7.03125 10.625 7.03125ZM15.3125 7.03125C14.6653 7.03125 14.1406 6.50656 14.1406 5.85938C14.1406 5.21219 14.6653 4.6875 15.3125 4.6875C15.9597 4.6875 16.4844 5.21219 16.4844 5.85938C16.4844 6.50656 15.9597 7.03125 15.3125 7.03125ZM34.0625 7.03125H27.0312C26.3841 7.03125 25.8594 6.50656 25.8594 5.85938C25.8594 5.21219 26.3841 4.6875 27.0312 4.6875H34.0625C34.7097 4.6875 35.2344 5.21219 35.2344 5.85938C35.2344 6.50656 34.7097 7.03125 34.0625 7.03125Z" fill="white"/>
<path d="M0 33.9844C0 35.9229 1.57711 37.5 3.51562 37.5H11.7969V34.553C8.84047 32.1143 7.10938 28.4842 7.10938 24.6094C7.10938 20.0223 9.57812 15.7448 13.5521 13.4459C14.6373 12.8178 15.9791 12.8152 17.0688 13.4436C18.1541 14.0695 18.8281 15.2365 18.8281 16.4891V20.5078L20 21.3867L21.1719 20.5078V16.4891C21.1719 15.2365 21.8459 14.0695 22.9309 13.4438C24.0192 12.8161 25.3607 12.817 26.4481 13.4461C30.4219 15.7448 32.8906 20.0223 32.8906 24.6094C32.8906 28.4842 31.1595 32.1143 28.2031 34.553V37.5H36.4844C38.4229 37.5 40 35.9229 40 33.9844V11.7188H0V33.9844Z" fill="white"/>
</g>
<defs>
<clipPath id="clip0_1_146">
<rect width="40" height="40" fill="white"/>
</clipPath>
</defs>
</svg>
