<svg width="40" height="40" viewBox="0 0 40 40" fill="none" xmlns="http://www.w3.org/2000/svg">
<path d="M23.9763 2.5791L20.6255 5.91395L36.6491 21.9377L40 18.6028L23.9763 2.5791Z" fill="white"/>
<path d="M20.4793 9.08313L9.67055 16.8037L5.5707 34.9599C5.33109 35.0357 5.07891 35.0756 4.82031 35.0756C4.15891 35.0756 3.53719 34.818 3.06937 34.3503C2.60172 33.8827 2.34414 33.2609 2.34414 32.5995C2.34414 31.9381 2.60172 31.3163 3.06945 30.8485L4.86539 29.0523C6.74477 27.1729 6.74477 24.1148 4.86539 22.2353H4.86508C2.10781 19.4781 2.10781 14.9916 4.86508 12.2344L3.2075 10.5768C-0.463828 14.2481 -0.463828 20.2217 3.2075 23.8931H3.20781C4.1732 24.8585 4.1732 26.4294 3.20773 27.3949L1.41188 29.1909C0.501406 30.1014 0 31.3119 0 32.5995C0 33.887 0.501406 35.0975 1.41188 36.008C2.32227 36.9184 3.53281 37.4199 4.82039 37.4199C5.70758 37.4199 6.83969 37.4631 7.58078 37.0172L25.7755 32.9087L33.4961 22.0999L20.4793 9.08313ZM22.5951 23.2993C21.9816 23.9127 21.1129 24.1145 20.3309 23.9059L8.22883 36.0079L6.57125 34.3504L18.6733 22.2483C18.4645 21.4663 18.6663 20.5976 19.2798 19.9841C20.1952 19.0688 21.6795 19.0688 22.5951 19.9841C23.5105 20.8996 23.5105 22.3839 22.5951 23.2993Z" fill="white"/>
</svg>
