<svg width="40" height="40" viewBox="0 0 40 40" fill="none" xmlns="http://www.w3.org/2000/svg">
<path d="M15.5285 30.7692C12.9131 30.7692 10.9131 32.7692 10.9131 35.3846C10.9131 38 12.9131 40 15.5285 40C18.1439 40 20.1438 38 20.1438 35.3846C20.1438 32.7692 18.1439 30.7692 15.5285 30.7692ZM15.5285 37.5385C14.2977 37.5385 13.3746 36.6154 13.3746 35.3846C13.3746 34.1538 14.2977 33.2308 15.5285 33.2308C16.7592 33.2308 17.6823 34.1538 17.6823 35.3846C17.6823 36.6154 16.7592 37.5385 15.5285 37.5385Z" fill="white"/>
<path d="M30.9133 30.7692C28.2979 30.7692 26.2979 32.7692 26.2979 35.3846C26.2979 38 28.2979 40 30.9133 40C33.5287 40 35.5287 38 35.5287 35.3846C35.5287 32.7692 33.5287 30.7692 30.9133 30.7692ZM30.9133 37.5385C29.6825 37.5385 28.7595 36.6154 28.7595 35.3846C28.7595 34.1538 29.6825 33.2308 30.9133 33.2308C32.1441 33.2308 33.0671 34.1538 33.0671 35.3846C33.0671 36.6154 32.1441 37.5385 30.9133 37.5385Z" fill="white"/>
<path d="M36.7595 6.15385H10.4518L7.83646 0H1.68262V3.07692H5.83646L12.298 18.7692C10.4518 19.5385 9.22108 21.3846 9.37493 23.5385C9.68262 26 11.8365 27.6923 14.1442 27.6923H35.5288V24.6154H13.9903C13.0672 24.6154 12.4518 24 12.4518 23.0769C12.4518 22.1538 13.0672 21.5385 13.9903 21.5385H34.298C35.0672 21.5385 35.6826 21.0769 35.8365 20.3077L38.298 8C38.4519 7.07692 37.6826 6.15385 36.7595 6.15385Z" fill="white"/>
</svg>
