<svg width="40" height="40" viewBox="0 0 40 40" fill="none" xmlns="http://www.w3.org/2000/svg">
<path d="M9.24328 19.6112C9.41642 19.622 9.57824 19.7009 9.69326 19.8308C9.80828 19.9606 9.86712 20.1308 9.85688 20.304C9.80602 21.5071 10.1791 22.4728 10.9663 23.168C11.1425 23.323 11.3339 23.4599 11.5375 23.5766C11.4252 22.7115 11.3797 21.2954 12.0731 20.4081C12.4872 19.8786 13.0888 19.6094 13.8622 19.6094H15.2638C15.425 19.6091 15.5845 19.5769 15.7333 19.5147C15.882 19.4526 16.017 19.3616 16.1305 19.247C16.2439 19.1325 16.3336 18.9966 16.3943 18.8473C16.4551 18.6979 16.4857 18.5381 16.4844 18.3769V11.1444C16.4855 10.9837 16.4546 10.8244 16.3937 10.6757C16.3328 10.527 16.2429 10.3919 16.1294 10.2782C16.0159 10.1644 15.8809 10.0744 15.7323 10.0132C15.5837 9.95207 15.4244 9.92101 15.2638 9.92185H3.72602C3.56503 9.92089 3.40544 9.95183 3.25648 10.0129C3.10752 10.074 2.97213 10.1639 2.85814 10.2776C2.74415 10.3913 2.65381 10.5264 2.59233 10.6752C2.53086 10.824 2.49948 10.9835 2.5 11.1445V18.3769C2.4991 18.5383 2.53009 18.6983 2.59119 18.8477C2.65228 18.9971 2.74228 19.1329 2.85601 19.2474C2.96975 19.3619 3.10498 19.4528 3.25394 19.515C3.4029 19.5771 3.56267 19.6091 3.72406 19.6094H9.20672C9.2211 19.6094 9.23227 19.6106 9.24328 19.6112ZM14.4922 17.3437H10.3483C10.2447 17.3437 10.1453 17.3026 10.0721 17.2293C9.99881 17.1561 9.95766 17.0567 9.95766 16.9531C9.95766 16.8495 9.99881 16.7501 10.0721 16.6769C10.1453 16.6036 10.2447 16.5625 10.3483 16.5625H14.4922C14.5958 16.5625 14.6951 16.6036 14.7684 16.6769C14.8417 16.7501 14.8828 16.8495 14.8828 16.9531C14.8828 17.0567 14.8417 17.1561 14.7684 17.2293C14.6951 17.3026 14.5958 17.3437 14.4922 17.3437ZM14.4922 15.3125H13.5984C13.4948 15.3125 13.3954 15.2713 13.3221 15.1981C13.2489 15.1248 13.2077 15.0255 13.2077 14.9219C13.2077 14.8183 13.2489 14.7189 13.3221 14.6456C13.3954 14.5724 13.4948 14.5312 13.5984 14.5312H14.4922C14.5958 14.5312 14.6951 14.5724 14.7684 14.6456C14.8417 14.7189 14.8828 14.8183 14.8828 14.9219C14.8828 15.0255 14.8417 15.1248 14.7684 15.1981C14.6951 15.2713 14.5958 15.3125 14.4922 15.3125ZM10.0234 12.5H14.4922C14.5958 12.5 14.6951 12.5411 14.7684 12.6144C14.8417 12.6876 14.8828 12.787 14.8828 12.8906C14.8828 12.9942 14.8417 13.0936 14.7684 13.1668C14.6951 13.2401 14.5958 13.2812 14.4922 13.2812H10.0234C9.91984 13.2812 9.82048 13.2401 9.74723 13.1668C9.67397 13.0936 9.63281 12.9942 9.63281 12.8906C9.63281 12.787 9.67397 12.6876 9.74723 12.6144C9.82048 12.5411 9.91984 12.5 10.0234 12.5ZM4.4982 12.5H8.07336C8.17696 12.5 8.27632 12.5411 8.34957 12.6144C8.42283 12.6876 8.46399 12.787 8.46399 12.8906C8.46399 12.9942 8.42283 13.0936 8.34957 13.1668C8.27632 13.2401 8.17696 13.2812 8.07336 13.2812H4.49805C4.39445 13.2812 4.29509 13.2401 4.22183 13.1668C4.14858 13.0936 4.10742 12.9942 4.10742 12.8906C4.10742 12.787 4.14858 12.6876 4.22183 12.6144C4.29509 12.5411 4.39445 12.5 4.49805 12.5H4.4982ZM4.4982 14.5312H11.6484C11.752 14.5312 11.8514 14.5724 11.9247 14.6456C11.9979 14.7189 12.0391 14.8183 12.0391 14.9219C12.0391 15.0255 11.9979 15.1248 11.9247 15.1981C11.8514 15.2713 11.752 15.3125 11.6484 15.3125H4.49805C4.39445 15.3125 4.29509 15.2713 4.22183 15.1981C4.14858 15.1248 4.10742 15.0255 4.10742 14.9219C4.10742 14.8183 4.14858 14.7189 4.22183 14.6456C4.29509 14.5724 4.39445 14.5312 4.49805 14.5312H4.4982ZM8.39844 17.3437H4.49805C4.39445 17.3437 4.29509 17.3026 4.22183 17.2293C4.14858 17.1561 4.10742 17.0567 4.10742 16.9531C4.10742 16.8495 4.14858 16.7501 4.22183 16.6769C4.29509 16.6036 4.39445 16.5625 4.49805 16.5625H8.39844C8.50204 16.5625 8.6014 16.6036 8.67465 16.6769C8.74791 16.7501 8.78906 16.8495 8.78906 16.9531C8.78906 17.0567 8.74791 17.1561 8.67465 17.2293C8.6014 17.3026 8.50204 17.3437 8.39844 17.3437Z" fill="white"/>
<path d="M17.2656 11.1442V18.377C17.2668 18.6407 17.2159 18.9021 17.1159 19.1462C17.0158 19.3903 16.8686 19.6122 16.6826 19.7993C16.4967 19.9863 16.2756 20.1349 16.0321 20.2363C15.7886 20.3378 15.5275 20.3902 15.2638 20.3906H13.8622C13.3349 20.3906 12.9513 20.554 12.6895 20.8884C12.0273 21.7341 12.2776 23.5198 12.4299 24.1361C12.4464 24.2021 12.4453 24.2713 12.4267 24.3367C12.4082 24.4022 12.3729 24.4617 12.3242 24.5092C12.2756 24.5568 12.2154 24.5909 12.1496 24.608C12.0837 24.6251 12.0145 24.6247 11.9489 24.6069C11.3943 24.4312 10.8831 24.1402 10.4489 23.753C9.79688 23.1766 9.03687 22.1094 9.07266 20.3906H8.28125V31.1719H22.5724L19.6576 29.3377C19.573 29.2861 19.5119 29.2033 19.4875 29.1072C19.4631 29.0111 19.4772 28.9093 19.527 28.8235C19.8769 28.2096 20.4295 27.7365 21.09 27.4854C21.7506 27.2343 22.4779 27.2208 23.1473 27.4472L19.3812 15.1517C19.2182 14.6195 19.2733 14.0444 19.5344 13.5528C19.7955 13.0612 20.2412 12.6935 20.7734 12.5305C21.3057 12.3676 21.8808 12.4227 22.3724 12.6838C22.8639 12.9449 23.2316 13.3906 23.3946 13.9228L25.4523 20.6337C25.6518 20.3392 25.9228 20.1001 26.24 19.9388C26.5572 19.7776 26.91 19.6995 27.2656 19.7119V6.64062H8.28125V9.14062H15.2638C15.527 9.13989 15.7878 9.19123 16.0311 9.29168C16.2744 9.39213 16.4955 9.53971 16.6815 9.72593C16.8676 9.91215 17.015 10.1333 17.1152 10.3767C17.2155 10.6201 17.2666 10.881 17.2656 11.1442Z" fill="white"/>
<path d="M21.5733 28.1485C21.1179 28.2719 20.713 28.5356 20.416 28.9023L24.3834 31.4113C24.3209 31.2554 24.2647 31.0957 24.2148 30.9323L23.4573 28.4595L23.2909 28.3647C23.0331 28.2169 22.7486 28.1217 22.4538 28.0846C22.1589 28.0475 21.8597 28.0692 21.5733 28.1485Z" fill="white"/>
<path d="M27.2656 4.54609C27.2613 3.77429 26.9518 3.03556 26.4046 2.49119C25.8575 1.94682 25.1172 1.64105 24.3454 1.64062H11.1611C10.781 1.64156 10.4049 1.71754 10.0542 1.86421C9.70356 2.01087 9.38532 2.22532 9.11776 2.49527C8.85019 2.76522 8.63856 3.08534 8.49501 3.43727C8.35146 3.7892 8.27882 4.16602 8.28125 4.54609V5.85938H27.2656V4.54609ZM10 4.53125H9.84375C9.74015 4.53125 9.64079 4.49009 9.56753 4.41684C9.49428 4.34358 9.45312 4.24423 9.45312 4.14062C9.45312 4.03702 9.49428 3.93767 9.56753 3.86441C9.64079 3.79116 9.74015 3.75 9.84375 3.75H10C10.1036 3.75 10.203 3.79116 10.2762 3.86441C10.3495 3.93767 10.3906 4.03702 10.3906 4.14062C10.3906 4.24423 10.3495 4.34358 10.2762 4.41684C10.203 4.49009 10.1036 4.53125 10 4.53125ZM18.75 4.53125H11.5625C11.4589 4.53125 11.3595 4.49009 11.2863 4.41684C11.213 4.34358 11.1719 4.24423 11.1719 4.14062C11.1719 4.03702 11.213 3.93767 11.2863 3.86441C11.3595 3.79116 11.4589 3.75 11.5625 3.75H18.75C18.8536 3.75 18.953 3.79116 19.0262 3.86441C19.0995 3.93767 19.1406 4.03702 19.1406 4.14062C19.1406 4.24423 19.0995 4.34358 19.0262 4.41684C18.953 4.49009 18.8536 4.53125 18.75 4.53125Z" fill="white"/>
<path d="M25.2163 32.8485L23.8077 31.9531H8.28125V35.4539C8.27881 35.834 8.35145 36.2108 8.49499 36.5627C8.63854 36.9147 8.85017 37.2348 9.11774 37.5048C9.3853 37.7747 9.70354 37.9892 10.0542 38.1358C10.4048 38.2825 10.781 38.3584 11.1611 38.3594H24.3454C25.1172 38.3591 25.8576 38.0533 26.4048 37.5089C26.9519 36.9645 27.2614 36.2257 27.2656 35.4539V34.5575C26.4672 34.1424 25.7681 33.5594 25.2163 32.8485ZM17.7533 36.2115C17.5131 36.2115 17.2782 36.1402 17.0785 36.0068C16.8787 35.8733 16.7231 35.6836 16.6311 35.4617C16.5392 35.2397 16.5151 34.9955 16.562 34.7599C16.6089 34.5243 16.7246 34.3079 16.8944 34.138C17.0643 33.9682 17.2807 33.8525 17.5163 33.8056C17.7519 33.7587 17.9961 33.7828 18.2181 33.8747C18.44 33.9667 18.6297 34.1223 18.7632 34.3221C18.8967 34.5218 18.9679 34.7566 18.9679 34.9969C18.9675 35.3189 18.8394 35.6276 18.6117 35.8553C18.384 36.083 18.0753 36.2111 17.7533 36.2115Z" fill="white"/>
<path d="M35.3078 20.5108C35.2039 20.179 34.9729 19.9017 34.6653 19.7396C34.3577 19.5774 33.9985 19.5435 33.666 19.6452C33.3335 19.747 33.0547 19.9761 32.8906 20.2826C32.7264 20.5892 32.6901 20.9482 32.7897 21.2814L33.6233 24.0028C33.6388 24.052 33.6445 24.1038 33.6399 24.1552C33.6354 24.2066 33.6207 24.2566 33.5967 24.3023C33.5727 24.3479 33.5399 24.3884 33.5002 24.4214C33.4604 24.4543 33.4146 24.479 33.3653 24.4941C33.3159 24.5092 33.2641 24.5144 33.2127 24.5094C33.1614 24.5044 33.1115 24.4892 33.0661 24.4648C33.0206 24.4404 32.9805 24.4072 32.9479 24.3672C32.9153 24.3272 32.891 24.2811 32.8763 24.2317L31.7095 20.4225C31.6055 20.0907 31.3744 19.8136 31.0668 19.6515C30.7591 19.4895 30.3999 19.4557 30.0674 19.5575C29.7349 19.6594 29.4563 19.8886 29.2922 20.1951C29.1281 20.5017 29.0919 20.8607 29.1915 21.1939L30.3583 25.003C30.374 25.0522 30.3798 25.1041 30.3753 25.1556C30.3709 25.2071 30.3562 25.2572 30.3322 25.303C30.3083 25.3488 30.2754 25.3893 30.2357 25.4224C30.1959 25.4554 30.15 25.4802 30.1005 25.4953C30.0511 25.5104 29.9992 25.5156 29.9478 25.5105C29.8963 25.5055 29.8464 25.4902 29.8009 25.4657C29.7554 25.4412 29.7152 25.4079 29.6827 25.3677C29.6501 25.3276 29.6259 25.2813 29.6113 25.2317L28.4446 21.4227C28.3423 21.0888 28.1116 20.8092 27.8032 20.6454C27.4947 20.4816 27.1339 20.447 26.8 20.5493C26.4661 20.6516 26.1864 20.8823 26.0226 21.1907C25.8589 21.4992 25.8243 21.86 25.9266 22.1939L27.0934 26.0031C27.1089 26.0523 27.1146 26.1041 27.11 26.1554C27.1055 26.2068 27.0907 26.2568 27.0668 26.3025C27.0428 26.3482 27.01 26.3887 26.9702 26.4216C26.9305 26.4545 26.8847 26.4793 26.8353 26.4944C26.786 26.5095 26.7342 26.5147 26.6828 26.5096C26.6315 26.5046 26.5816 26.4894 26.5362 26.465C26.4907 26.4406 26.4505 26.4075 26.418 26.3675C26.3854 26.3274 26.3611 26.2814 26.3464 26.2319L22.646 14.1516C22.5954 13.9863 22.5127 13.8325 22.4026 13.6992C22.2925 13.5658 22.1573 13.4554 22.0046 13.3743C21.8519 13.2932 21.6847 13.243 21.5125 13.2265C21.3404 13.21 21.1667 13.2276 21.0014 13.2783C20.836 13.3289 20.6823 13.4116 20.5489 13.5217C20.4156 13.6317 20.3052 13.767 20.2241 13.9197C20.143 14.0724 20.0928 14.2396 20.0763 14.4118C20.0598 14.5839 20.0774 14.7576 20.1281 14.9229L24.9619 30.7035C25.375 32.0466 26.3041 33.1711 27.5452 33.8302C28.7864 34.4892 30.2383 34.6291 31.5824 34.2191L33.7591 33.5524C35.1023 33.1392 36.2268 32.2102 36.8858 30.969C37.5449 29.7279 37.6848 28.276 37.2747 26.9318L35.3078 20.5108Z" fill="white"/>
<path d="M17.7533 34.5634C17.6676 34.5634 17.5838 34.5888 17.5125 34.6365C17.4413 34.6841 17.3857 34.7518 17.3529 34.831C17.3201 34.9101 17.3115 34.9973 17.3283 35.0813C17.345 35.1654 17.3862 35.2426 17.4469 35.3032C17.5075 35.3638 17.5847 35.4051 17.6687 35.4218C17.7528 35.4385 17.8399 35.43 17.9191 35.3972C17.9983 35.3644 18.066 35.3088 18.1136 35.2376C18.1612 35.1663 18.1866 35.0825 18.1866 34.9968C18.1865 34.8819 18.1408 34.7718 18.0596 34.6905C17.9783 34.6093 17.8682 34.5636 17.7533 34.5634Z" fill="white"/>
</svg>
