<svg width="32" height="32" viewBox="0 0 32 32" fill="none" xmlns="http://www.w3.org/2000/svg">
<path fill-rule="evenodd" clip-rule="evenodd" d="M0 16C0 7.16344 7.16344 0 16 0C24.8366 0 32 7.16344 32 16C32 24.8366 24.8366 32 16 32C7.16344 32 0 24.8366 0 16Z" fill="#C4C4C4"/>
<path fill-rule="evenodd" clip-rule="evenodd" d="M16 0C7.16344 0 0 7.16344 0 16C0 24.8366 7.16344 32 16 32C24.8366 32 32 24.8366 32 16C32 7.16344 24.8366 0 16 0ZM15.8854 13.4612L15.8518 12.9075C15.7511 11.4726 16.6352 10.162 18.0342 9.65352C18.549 9.47274 19.422 9.45014 19.9927 9.60832C20.2166 9.67611 20.6418 9.90209 20.944 10.1055L21.4924 10.4783L22.0968 10.2862C22.4325 10.1846 22.8802 10.0151 23.0816 9.90209C23.2719 9.8004 23.4398 9.74391 23.4398 9.7778C23.4398 9.96988 23.0257 10.6252 22.6787 10.9868C22.2087 11.4952 22.343 11.5404 23.2943 11.2014C23.865 11.0094 23.8762 11.0094 23.7643 11.224C23.6972 11.337 23.3502 11.7325 22.9809 12.094C22.3542 12.7155 22.3206 12.7833 22.3206 13.303C22.3206 14.1052 21.9401 15.7774 21.5596 16.6926C20.8545 18.41 19.3436 20.1839 17.8327 21.0765C15.7063 22.3307 12.8748 22.647 10.491 21.9126C9.69639 21.664 8.33101 21.0313 8.33101 20.9183C8.33101 20.8844 8.7451 20.8392 9.24873 20.8279C10.3007 20.8053 11.3528 20.5116 12.2481 19.9918L12.8524 19.6303L12.1586 19.393C11.1737 19.054 10.2896 18.2744 10.0657 17.54C9.99857 17.3027 10.021 17.2914 10.6477 17.2914L11.2968 17.2801L10.7484 17.0203C10.0993 16.6926 9.50613 16.139 9.21515 15.574C9.00251 15.1673 8.73391 14.1391 8.81225 14.06C8.83463 14.0261 9.06966 14.0939 9.33826 14.1843C10.1105 14.4668 10.2112 14.399 9.76354 13.9244C8.92417 13.0657 8.66676 11.789 9.06966 10.58L9.25992 10.0377L9.99857 10.7721C11.5094 12.2522 13.2889 13.1335 15.3258 13.3934L15.8854 13.4612Z" fill="white"/>
</svg>
