<svg width="38" height="34" viewBox="0 0 38 34" fill="none" xmlns="http://www.w3.org/2000/svg">
<path d="M34.68 22.5V27.74C34.68 30.5 32.44 32.74 29.68 32.74H6.5C3.74 32.74 1.5 30.5 1.5 27.74V6.5C1.5 3.74 3.74 1.5 6.5 1.5H29.68C32.44 1.5 34.68 3.74 34.68 6.5V11.5" stroke="white" stroke-width="2" stroke-miterlimit="10" stroke-linecap="round" stroke-linejoin="round"/>
<path d="M25 17H26.48" stroke="white" stroke-width="2" stroke-miterlimit="10" stroke-linecap="round" stroke-linejoin="round"/>
<path d="M22.7799 22H34.6101C35.9245 22 37 21.0546 37 19.8992V14.1008C37 12.9454 35.9245 12 34.6101 12H22.7799C20.1509 12 18 13.8908 18 16.2017V17.7983C18 20.1303 20.127 22 22.7799 22Z" stroke="white" stroke-width="2" stroke-miterlimit="10" stroke-linecap="round" stroke-linejoin="round"/>
</svg>
